<svg xmlns="http://www.w3.org/2000/svg" width="80" height="88" viewBox="0 0 80 88">
    <g fill="none" fill-rule="evenodd">
        <g>
            <g>
                <g transform="translate(-140 -197) translate(48 197) translate(92)">
                    <circle cx="39.6" cy="43.2" r="39.6" fill="#EFF3FF"/>
                    <path fill="#CAD7FF" d="M59.2 72.1c1.105 0 2 .895 2 2v11.3c0 1.105-.895 2-2 2H20c-1.105 0-2-.895-2-2V74.1c0-1.105.895-2 2-2h39.2zm-3-50.5c2.761 0 5 2.239 5 5v34.1c0 2.761-2.239 5-5 5H23c-2.761 0-5-2.239-5-5V26.6c0-2.761 2.239-5 5-5h33.2zm3-21.6c1.105 0 2 .895 2 2v11.3c0 1.105-.895 2-2 2H20c-1.105 0-2-.895-2-2V2c0-1.105.895-2 2-2h39.2z"/>
                </g>
            </g>
        </g>
    </g>
</svg>
