<svg xmlns="http://www.w3.org/2000/svg" xmlns:xlink="http://www.w3.org/1999/xlink" width="181" height="181" viewBox="0 0 181 181">
    <defs>
        <path id="7y9wcyacca" d="M89.892.228C40.217.405 0 40.73 0 90.445c0 49.826 40.392 90.218 90.217 90.218 49.826 0 90.217-40.392 90.217-90.218 0-49.716-40.216-90.04-89.89-90.217"/>
        <path id="590qu9musc" d="M89.892.228C40.217.405 0 40.73 0 90.445c0 49.826 40.392 90.218 90.217 90.218 49.826 0 90.217-40.392 90.217-90.218 0-49.716-40.216-90.04-89.89-90.217h-.652z"/>
        <path id="hrktudu51e" d="M89.892.228C40.217.405 0 40.73 0 90.445c0 49.826 40.392 90.218 90.217 90.218 49.826 0 90.217-40.392 90.217-90.218 0-49.716-40.216-90.04-89.89-90.217"/>
        <path id="y9kcjjorsg" d="M89.892.228C40.217.405 0 40.73 0 90.445c0 49.826 40.392 90.218 90.217 90.218 49.826 0 90.217-40.392 90.217-90.218 0-49.716-40.216-90.04-89.89-90.217"/>
        <path id="myrr9r3k1i" d="M89.892.228C40.217.405 0 40.73 0 90.445c0 49.826 40.392 90.218 90.217 90.218 49.826 0 90.217-40.392 90.217-90.218 0-49.716-40.216-90.04-89.89-90.217"/>
        <path id="az1saotpck" d="M89.892.228C40.217.405 0 40.73 0 90.445c0 49.826 40.392 90.218 90.217 90.218 49.826 0 90.217-40.392 90.217-90.218 0-49.716-40.216-90.04-89.89-90.217"/>
        <path id="t9vi8e4i6m" d="M89.892.228C40.217.405 0 40.73 0 90.445c0 49.826 40.392 90.218 90.217 90.218 49.826 0 90.217-40.392 90.217-90.218 0-49.716-40.216-90.04-89.89-90.217h-.652z"/>
        <path id="wp3xvylxyo" d="M89.892.228C40.217.405 0 40.73 0 90.445c0 49.826 40.392 90.218 90.217 90.218 49.826 0 90.217-40.392 90.217-90.218 0-49.716-40.216-90.04-89.89-90.217"/>
        <path id="vehdty5ziq" d="M89.892.228C40.217.405 0 40.73 0 90.445c0 49.826 40.392 90.218 90.217 90.218 49.826 0 90.217-40.392 90.217-90.218 0-49.716-40.216-90.04-89.89-90.217"/>
        <path id="0ge49zrqzs" d="M89.892.228C40.217.405 0 40.73 0 90.445c0 49.826 40.392 90.218 90.217 90.218 49.826 0 90.217-40.392 90.217-90.218 0-49.716-40.216-90.04-89.89-90.217"/>
        <path id="v1oqvqcmxu" d="M89.892.228C40.217.405 0 40.73 0 90.445c0 49.826 40.392 90.218 90.217 90.218 49.826 0 90.217-40.392 90.217-90.218 0-49.716-40.216-90.04-89.89-90.217"/>
    </defs>
    <g fill="none" fill-rule="evenodd">
        <g>
            <g>
                <g>
                    <g transform="translate(-90 -254) translate(40 194) translate(50 60)">
                        <mask id="nb6rp1f46b" fill="#fff">
                            <use xlink:href="#7y9wcyacca"/>
                        </mask>
                        <path fill="#EFF3FF" d="M180.434 90.445c0 49.826-40.391 90.217-90.216 90.217C40.392 180.662 0 140.272 0 90.445 0 40.62 40.392.228 90.218.228c49.825 0 90.216 40.392 90.216 90.217" mask="url(#nb6rp1f46b)"/>
                    </g>
                    <g transform="translate(-90 -254) translate(40 194) translate(50 60)">
                        <mask id="mhj4qmmudd" fill="#fff">
                            <use xlink:href="#590qu9musc"/>
                        </mask>
                        <path fill="#CAD7FF" d="M39.585 166.539L142.424 166.539 116.022 191.018 42.398 191.018z" mask="url(#mhj4qmmudd)"/>
                    </g>
                    <g transform="translate(-90 -254) translate(40 194) translate(50 60)">
                        <mask id="jiie5wq5lf" fill="#fff">
                            <use xlink:href="#hrktudu51e"/>
                        </mask>
                        <path fill="#AAC4FF" d="M88.924 148.207c-6.821-1.646-11.016-8.51-9.37-15.33 1.645-6.82 8.51-11.015 15.33-9.37 6.82 1.645 11.015 8.51 9.37 15.33-1.646 6.821-8.51 11.016-15.33 9.37m10.239-42.435c-16.615-4.009-33.335 6.21-37.344 22.826-4.01 16.616 6.21 33.335 22.825 37.344 16.616 4.01 33.336-6.21 37.345-22.826 4.009-16.615-6.21-33.335-22.826-37.344" mask="url(#jiie5wq5lf)"/>
                    </g>
                    <g transform="translate(-90 -254) translate(40 194) translate(50 60)">
                        <mask id="l8uulkuv2h" fill="#fff">
                            <use xlink:href="#y9kcjjorsg"/>
                        </mask>
                        <path fill="#CAD7FF" d="M81.838 12.642C71.348 10.112 60.8 16.4 57.976 26.739l11.051 4.669c.032-.443.092-.888.2-1.333 1.058-4.388 5.472-7.085 9.858-6.027 4.387 1.058 7.085 5.472 6.027 9.86-.327 1.354-.976 2.545-1.842 3.517l11.05 4.67c.974-1.653 1.724-3.474 2.197-5.435 2.579-10.686-3.993-21.44-14.68-24.018" mask="url(#l8uulkuv2h)"/>
                    </g>
                    <g transform="translate(-90 -254) translate(40 194) translate(50 60)">
                        <mask id="udnb77hthj" fill="#fff">
                            <use xlink:href="#myrr9r3k1i"/>
                        </mask>
                        <path fill="#CAD7FF" d="M72.166 109.856l-19.815 4.262c-3.066.66-6.087-1.292-6.747-4.359l-4.262-19.813c-.66-3.067 1.291-6.088 4.358-6.748l19.814-4.262c3.067-.66 6.088 1.292 6.747 4.358l4.263 19.814c.66 3.067-1.292 6.088-4.358 6.748" mask="url(#udnb77hthj)"/>
                    </g>
                    <g transform="translate(-90 -254) translate(40 194) translate(50 60)">
                        <mask id="crli5zrbol" fill="#fff">
                            <use xlink:href="#az1saotpck"/>
                        </mask>
                        <path fill="#CAD7FF" d="M154.76 160.552l-19.814 4.262c-3.067.66-6.087-1.291-6.747-4.358l-4.262-19.815c-.66-3.066 1.29-6.087 4.358-6.746l19.814-4.263c3.067-.66 6.087 1.292 6.747 4.357l4.262 19.815c.66 3.067-1.29 6.088-4.358 6.748" mask="url(#crli5zrbol)"/>
                    </g>
                    <g transform="translate(-90 -254) translate(40 194) translate(50 60)">
                        <mask id="efow15rszn" fill="#fff">
                            <use xlink:href="#t9vi8e4i6m"/>
                        </mask>
                        <path fill="#AAC4FF" d="M74.597 85.387L96.855 103.999 99.79 74.238z" mask="url(#efow15rszn)"/>
                    </g>
                    <g transform="translate(-90 -254) translate(40 194) translate(50 60)">
                        <mask id="x004m7ri1p" fill="#fff">
                            <use xlink:href="#wp3xvylxyo"/>
                        </mask>
                        <path fill="#AAC4FF" d="M86.79 54.468c-1.706 7.069-8.818 11.416-15.887 9.71-7.069-1.706-11.416-8.818-9.71-15.886 1.705-7.069 8.817-11.417 15.886-9.71 7.069 1.705 11.417 8.817 9.711 15.886" mask="url(#x004m7ri1p)"/>
                    </g>
                    <g transform="translate(-90 -254) translate(40 194) translate(50 60)">
                        <mask id="aab16nowgr" fill="#fff">
                            <use xlink:href="#vehdty5ziq"/>
                        </mask>
                        <path fill="#CAD7FF" d="M135.982 107.67c-8.872 7.58-22.208 6.532-29.788-2.34-7.58-8.872-6.532-22.209 2.34-29.789" mask="url(#aab16nowgr)"/>
                    </g>
                    <g transform="translate(-90 -254) translate(40 194) translate(50 60)">
                        <mask id="htgf9xm6mt" fill="#fff">
                            <use xlink:href="#0ge49zrqzs"/>
                        </mask>
                        <path fill="#CAD7FF" d="M47.832 124.785c9.33 7.007 11.216 20.251 4.21 29.583-7.007 9.331-20.251 11.216-29.583 4.21" mask="url(#htgf9xm6mt)"/>
                    </g>
                    <g transform="translate(-90 -254) translate(40 194) translate(50 60)">
                        <mask id="j9wtcdxqdv" fill="#fff">
                            <use xlink:href="#v1oqvqcmxu"/>
                        </mask>
                        <path fill="#CAD7FF" d="M114.146 67.903l-16.56-1.468c-5.127-.455-8.95-5.022-8.495-10.148l.49-5.516c.454-5.127 5.02-8.95 10.147-8.495l16.56 1.468c5.127.455 8.949 5.021 8.495 10.148l-.49 5.516c-.454 5.127-5.02 8.95-10.147 8.495" mask="url(#j9wtcdxqdv)"/>
                    </g>
                    <g fill="#AAC4FF">
                        <path d="M75.76 7.38L2.88.917C1.86.827.952 1.587.86 2.607l-.097 1.1c-.09 1.02.67 1.929 1.69 2.018l72.882 6.463c1.02.09 1.929-.67 2.02-1.69l.096-1.1c.091-1.02-.67-1.927-1.69-2.018" transform="translate(-90 -254) translate(40 194) translate(50 60) translate(57 64)"/>
                    </g>
                </g>
            </g>
        </g>
    </g>
</svg>
