<svg xmlns="http://www.w3.org/2000/svg" width="55" height="55" viewBox="0 0 55 55">
    <g fill="none" fill-rule="evenodd">
        <g>
            <g>
                <g transform="translate(-69 -500) translate(24 484) translate(45 16)">
                    <circle cx="27.5" cy="27.5" r="27.5" fill="#ECEEF0"/>
                    <g transform="translate(12 12)">
                        <circle cx="16" cy="16" r="16" fill="#36F"/>
                        <path fill="#EFEFEF" d="M22 7c.552 0 1 .448 1 1v16c0 .552-.448 1-1 1H10c-.552 0-1-.448-1-1V8c0-.552.448-1 1-1h12zm-1 14H11v1.5h10V21zm0-3H11v1.5h10V18zm-3.447-5.198l-2.33 2.446-1.445-1.462L11.562 16h8.916l-2.925-3.198zM13.5 9c-.828 0-1.5.672-1.5 1.5s.672 1.5 1.5 1.5 1.5-.672 1.5-1.5S14.328 9 13.5 9z"/>
                    </g>
                </g>
            </g>
        </g>
    </g>
</svg>
