<svg xmlns="http://www.w3.org/2000/svg" width="55" height="55" viewBox="0 0 55 55">
    <g fill="none" fill-rule="evenodd">
        <g>
            <g>
                <g>
                    <g fill="#ECEEF0" transform="translate(-237 -500) translate(192 484) translate(45 16)">
                        <circle cx="27.5" cy="27.5" r="27.5"/>
                    </g>
                    <g transform="translate(-237 -500) translate(192 484) translate(45 16) translate(9 13)">
                        <rect width="21" height="21" x="8" fill="#85A4FF" rx="1.5"/>
                        <rect width="21" height="16" x="12.799" y="5.141" fill="#ADC2FF" rx="1.5" transform="scale(-1 1) rotate(-20 0 145.275)"/>
                        <rect width="22" height="17" x="3" y="4" fill="#FFF" rx="1.5" transform="rotate(-20 14 12.5)"/>
                        <rect width="22" height="17" x="3" y="4" fill="#36F" opacity=".248" rx="1.5" transform="rotate(-20 14 12.5)"/>
                        <rect width="27" height="21" x="5" y="8" fill="#36F" rx="2"/>
                        <path fill="#FFF" d="M10 13H27V15H10zM10 17.5H27V19.5H10zM10 22H27V24H10z"/>
                    </g>
                </g>
            </g>
        </g>
    </g>
</svg>
