<svg xmlns="http://www.w3.org/2000/svg" xmlns:xlink="http://www.w3.org/1999/xlink" width="230" height="40" viewBox="0 0 230 40">
    <defs>
        <path id="mgvtu3bp5a" d="M0 38.963L227.533 38.963 227.533 0 0 0z"/>
    </defs>
    <g fill="none" fill-rule="evenodd">
        <g>
            <g transform="translate(-65 -360) translate(65.714 360)">
                <path fill="#2C3C4F" d="M46.612 22.324c0-1.267-.268-2.212-.805-2.835-.538-.624-1.216-.935-2.037-.935-.72 0-1.323.299-1.81.897-.485.598-.729 1.601-.729 3.01 0 1.317.251 2.282.753 2.895.501.614 1.122.92 1.862.92.79 0 1.449-.309 1.976-.927.527-.618.79-1.627.79-3.025zm6.202-14.167V30.44h-5.791v-2.386c-.811 1.013-1.55 1.697-2.22 2.051-.892.466-1.884.7-2.979.7-2.199 0-3.879-.836-5.04-2.508-1.16-1.673-1.74-3.704-1.74-6.096 0-2.675.641-4.722 1.924-6.141 1.282-1.419 2.91-2.128 4.886-2.128.963 0 1.837.162 2.622.487.786.324 1.483.81 2.091 1.459V8.157h6.247zM62.026 22.4c0 1.44.291 2.503.874 3.192.583.69 1.315 1.034 2.196 1.034.892 0 1.625-.34 2.197-1.019.572-.679.859-1.768.859-3.268 0-1.398-.29-2.44-.866-3.124-.578-.684-1.293-1.026-2.144-1.026-.902 0-1.647.347-2.235 1.041-.587.695-.88 1.75-.88 3.17m-6.203.015c0-2.463.83-4.492 2.493-6.088 1.662-1.596 3.907-2.394 6.734-2.394 3.232 0 5.675.937 7.327 2.812 1.327 1.51 1.991 3.37 1.991 5.579 0 2.483-.823 4.517-2.47 6.103-1.647 1.586-3.925 2.379-6.833 2.379-2.594 0-4.692-.659-6.293-1.976-1.966-1.632-2.949-3.77-2.949-6.415M89.388 24.118l5.882.668c-.324 1.227-.856 2.288-1.596 3.185-.74.897-1.685 1.594-2.835 2.09-1.15.496-2.612.745-4.386.745-1.712 0-3.138-.16-4.278-.479-1.14-.319-2.12-.835-2.941-1.548-.821-.715-1.465-1.552-1.931-2.514-.466-.962-.7-2.238-.7-3.827 0-1.66.284-3.043.852-4.146.415-.81.983-1.537 1.702-2.18.72-.642 1.46-1.12 2.22-1.435 1.206-.496 2.751-.744 4.636-.744 2.635 0 4.644.471 6.027 1.414 1.383.942 2.354 2.32 2.91 4.134l-5.82.775c-.183-.688-.515-1.208-.997-1.558-.481-.35-1.127-.524-1.937-.524-1.024 0-1.853.366-2.486 1.1-.633.734-.95 1.844-.95 3.33 0 1.326.314 2.332.943 3.02.628.688 1.428 1.032 2.401 1.032.81 0 1.492-.207 2.045-.623.552-.416.965-1.054 1.239-1.915M109.741 20.94c-.121-1.195-.443-2.052-.965-2.568-.522-.517-1.208-.776-2.06-.776-.983 0-1.768.39-2.356 1.171-.375.486-.613 1.21-.714 2.174h6.095zm6.294 2.965H103.63c.111.993.38 1.733.805 2.219.598.7 1.378 1.05 2.341 1.05.608 0 1.186-.153 1.733-.457.335-.192.694-.532 1.08-1.018l6.095.562c-.933 1.621-2.058 2.784-3.375 3.489-1.317.703-3.207 1.056-5.67 1.056-2.138 0-3.82-.302-5.046-.905-1.227-.602-2.242-1.56-3.048-2.872-.806-1.313-1.209-2.856-1.209-4.63 0-2.523.808-4.565 2.425-6.125 1.617-1.56 3.848-2.341 6.696-2.341 2.31 0 4.135.35 5.473 1.049 1.337.7 2.356 1.713 3.055 3.04.699 1.328 1.049 3.055 1.049 5.184v.699zM124.805 22.324c0 1.388.262 2.394.784 3.017.521.624 1.183.935 1.983.935.74 0 1.36-.306 1.862-.92.501-.613.753-1.644.753-3.093 0-1.277-.246-2.214-.737-2.812-.492-.598-1.087-.897-1.787-.897-.841 0-1.527.311-2.06.935-.531.623-.798 1.568-.798 2.835zm-6.202-14.167h6.248v7.722c.618-.649 1.32-1.135 2.106-1.46.785-.324 1.653-.486 2.607-.486 1.966 0 3.592.707 4.88 2.12 1.286 1.414 1.93 3.443 1.93 6.088 0 1.763-.294 3.317-.882 4.66-.589 1.342-1.402 2.346-2.44 3.01-1.038.663-2.192.995-3.458.995-1.084 0-2.078-.234-2.98-.7-.68-.364-1.418-1.048-2.219-2.051v2.386h-5.792V8.157z"/>
                <mask id="0d7la4cy1b" fill="#fff">
                    <use xlink:href="#mgvtu3bp5a"/>
                </mask>
                <path fill="#2C3C4F" d="M139.55 30.441L145.752 30.441 145.752 8.157 139.55 8.157zM155.146 22.4c0 1.44.291 2.503.874 3.192.583.69 1.315 1.034 2.196 1.034.893 0 1.625-.34 2.197-1.019.572-.679.859-1.768.859-3.268 0-1.398-.29-2.44-.866-3.124-.578-.684-1.293-1.026-2.144-1.026-.902 0-1.646.347-2.234 1.041-.588.695-.882 1.75-.882 3.17m-6.202.015c0-2.463.83-4.492 2.493-6.088 1.662-1.596 3.907-2.394 6.734-2.394 3.232 0 5.675.937 7.327 2.812 1.327 1.51 1.991 3.37 1.991 5.579 0 2.483-.824 4.517-2.47 6.103-1.647 1.586-3.925 2.379-6.832 2.379-2.595 0-4.693-.659-6.294-1.976-1.966-1.632-2.949-3.77-2.949-6.415M182.508 24.118l5.882.668c-.324 1.227-.856 2.288-1.595 3.185-.74.897-1.686 1.594-2.836 2.09-1.15.496-2.612.745-4.385.745-1.713 0-3.139-.16-4.279-.479-1.14-.319-2.12-.835-2.941-1.548-.82-.715-1.465-1.552-1.931-2.514-.466-.962-.699-2.238-.699-3.827 0-1.66.284-3.043.851-4.146.416-.81.983-1.537 1.703-2.18.719-.642 1.459-1.12 2.22-1.435 1.205-.496 2.75-.744 4.635-.744 2.635 0 4.644.471 6.028 1.414 1.383.942 2.353 2.32 2.91 4.134l-5.821.775c-.182-.688-.515-1.208-.997-1.558-.48-.35-1.126-.524-1.937-.524-1.024 0-1.852.366-2.486 1.1-.633.734-.95 1.844-.95 3.33 0 1.326.315 2.332.943 3.02.628.688 1.429 1.032 2.402 1.032.81 0 1.491-.207 2.044-.623.552-.416.965-1.054 1.24-1.915M190.701 8.157L197.025 8.157 197.025 19.659 201.646 14.298 209.261 14.298 203.47 19.952 209.596 30.441 202.625 30.441 199.355 23.969 197.025 26.246 197.025 30.441 190.701 30.441zM210.371 25.957l6.14-.578c.254.73.609 1.252 1.065 1.566.456.314 1.064.47 1.824.47.831 0 1.474-.176 1.93-.53.355-.263.532-.592.532-.986 0-.446-.233-.79-.699-1.033-.334-.172-1.221-.384-2.66-.638-2.148-.374-3.64-.72-4.476-1.04-.836-.318-1.54-.857-2.113-1.617-.573-.759-.86-1.624-.86-2.596 0-1.064.31-1.98.928-2.75.618-.768 1.47-1.343 2.554-1.722 1.084-.38 2.538-.57 4.362-.57 1.926 0 3.347.147 4.264.44.917.295 1.682.75 2.295 1.369.614.618 1.123 1.454 1.528 2.508l-5.867.578c-.152-.517-.406-.898-.76-1.14-.487-.325-1.075-.487-1.764-.487-.699 0-1.208.124-1.527.372-.32.248-.479.549-.479.903 0 .395.202.693.608.895.405.203 1.287.385 2.645.547 2.057.233 3.588.557 4.59.972 1.004.415 1.772 1.007 2.304 1.777.532.769.798 1.614.798 2.536 0 .93-.282 1.837-.844 2.718-.562.88-1.45 1.582-2.66 2.103-1.211.521-2.86.782-4.948.782-2.95 0-5.05-.42-6.3-1.262-1.253-.84-2.056-2.037-2.41-3.587" mask="url(#0d7la4cy1b)"/>
                <path fill="#2145C7" d="M13.006 13.003L26.009 13.003 26.009 0 13.006 0z" mask="url(#0d7la4cy1b)"/>
                <path fill="#36F" d="M13.006 26.006L26.009 26.006 26.009 13.003 13.006 13.003zM0 38.963L13.004 38.963 13.004 25.959 0 25.959z" mask="url(#0d7la4cy1b)"/>
                <path fill="#6C96FF" d="M13.006 38.962L26.009 38.962 26.009 25.959z" mask="url(#0d7la4cy1b)"/>
                <path fill="#2145C7" d="M0 26.006L13.004 26.006 13.004 13.003 0 13.003z" mask="url(#0d7la4cy1b)"/>
                <path fill="#6C96FF" d="M0 13.051L13.003 0.047 0 0.047z" mask="url(#0d7la4cy1b)"/>
            </g>
        </g>
    </g>
</svg>
